<svg width="24" height="25" viewBox="0 0 24 25" fill="none" xmlns="http://www.w3.org/2000/svg">
<path d="M4 7.41992C4.58984 8.02676 6.15973 10.4199 7 10.4199C7.84027 10.4199 9.41016 8.02676 10 7.41992M7 9.41992V2.41992" stroke="#101010" stroke-width="1.5" stroke-linecap="round" stroke-linejoin="round"/>
<path d="M4 13.4199V14.9641C4 18.2091 4 19.8316 4.88607 20.9306C5.06508 21.1526 5.26731 21.3548 5.48933 21.5338C6.58831 22.4199 8.21082 22.4199 11.4558 22.4199C12.1614 22.4199 12.5141 22.4199 12.8372 22.3059C12.9044 22.2822 12.9702 22.2549 13.0345 22.2242C13.3436 22.0763 13.593 21.8269 14.0919 21.328L18.8284 16.5915C19.4065 16.0134 19.6955 15.7244 19.8478 15.3568C20 14.9893 20 14.5805 20 13.763V10.4199C20 6.64868 20 4.76307 18.8284 3.59149C17.6569 2.41992 15.7712 2.41992 12 2.41992M13 21.9199V21.4199C13 18.5915 13 17.1773 13.8787 16.2986C14.7574 15.4199 16.1716 15.4199 19 15.4199H19.5" stroke="#101010" stroke-width="1.5" stroke-linecap="round" stroke-linejoin="round"/>
</svg>
