<svg width="24" height="25" viewBox="0 0 24 25" fill="none" xmlns="http://www.w3.org/2000/svg">
<path d="M4 7.42041C4.58984 8.02725 6.15973 10.4204 7 10.4204C7.84027 10.4204 9.41016 8.02725 10 7.42041M7 9.42041V2.42041" stroke="#101010" stroke-width="1.5" stroke-linecap="round" stroke-linejoin="round"/>
<path d="M4 13.4204V14.9646C4 18.2096 4 19.8321 4.88607 20.9311C5.06508 21.1531 5.26731 21.3553 5.48933 21.5343C6.58831 22.4204 8.21082 22.4204 11.4558 22.4204C12.1614 22.4204 12.5141 22.4204 12.8372 22.3064C12.9044 22.2827 12.9702 22.2554 13.0345 22.2247C13.3436 22.0768 13.593 21.8274 14.0919 21.3285L18.8284 16.592C19.4065 16.0139 19.6955 15.7249 19.8478 15.3573C20 14.9898 20 14.581 20 13.7635V10.4204C20 6.64917 20 4.76356 18.8284 3.59198C17.6569 2.42041 15.7712 2.42041 12 2.42041M13 21.9204V21.4204C13 18.592 13 17.1778 13.8787 16.2991C14.7574 15.4204 16.1716 15.4204 19 15.4204H19.5" stroke="#101010" stroke-width="1.5" stroke-linecap="round" stroke-linejoin="round"/>
</svg>
