<svg width="24" height="25" viewBox="0 0 24 25" fill="none" xmlns="http://www.w3.org/2000/svg">
<path d="M8.85746 12.9265C6.36901 11.066 4.59564 9.01956 3.62734 7.86908C3.3276 7.51294 3.22938 7.25231 3.17033 6.79321C2.96811 5.22121 2.86701 4.43521 3.32795 3.92781C3.7889 3.42041 4.60404 3.42041 6.23433 3.42041H17.7657C19.396 3.42041 20.2111 3.42041 20.672 3.92781C21.133 4.43521 21.0319 5.22121 20.8297 6.79322C20.7706 7.25232 20.6724 7.51295 20.3726 7.86908C19.403 9.02103 17.6261 11.0711 15.1326 12.9339C14.907 13.1025 14.7583 13.3771 14.7307 13.6818C14.4837 16.4124 14.2559 17.908 14.1141 18.6646C13.8853 19.8861 12.1532 20.621 11.226 21.2767C10.6741 21.667 10.0043 21.2024 9.93278 20.5982C9.79643 19.4465 9.53961 17.1068 9.25927 13.6818C9.23409 13.3743 9.08486 13.0965 8.85746 12.9265Z" stroke="#101010" stroke-width="1.5" stroke-linecap="round" stroke-linejoin="round"/>
</svg>
