<svg width="24" height="25" viewBox="0 0 24 25" fill="none" xmlns="http://www.w3.org/2000/svg">
<path d="M8.85746 12.926C6.36901 11.0655 4.59564 9.01907 3.62734 7.86859C3.3276 7.51245 3.22938 7.25182 3.17033 6.79272C2.96811 5.22072 2.86701 4.43472 3.32795 3.92732C3.7889 3.41992 4.60404 3.41992 6.23433 3.41992H17.7657C19.396 3.41992 20.2111 3.41992 20.672 3.92732C21.133 4.43472 21.0319 5.22072 20.8297 6.79273C20.7706 7.25183 20.6724 7.51246 20.3726 7.86859C19.403 9.02054 17.6261 11.0706 15.1326 12.9334C14.907 13.102 14.7583 13.3766 14.7307 13.6813C14.4837 16.4119 14.2559 17.9075 14.1141 18.6641C13.8853 19.8856 12.1532 20.6205 11.226 21.2762C10.6741 21.6665 10.0043 21.2019 9.93278 20.5977C9.79643 19.446 9.53961 17.1063 9.25927 13.6813C9.23409 13.3738 9.08486 13.096 8.85746 12.926Z" stroke="#101010" stroke-width="1.5" stroke-linecap="round" stroke-linejoin="round"/>
</svg>
