<svg width="32" height="32" viewBox="0 0 32 32" fill="none" xmlns="http://www.w3.org/2000/svg">
<path d="M20.6666 16.0002C20.6666 18.5775 18.5773 20.6668 15.9999 20.6668C13.4226 20.6668 11.3333 18.5775 11.3333 16.0002C11.3333 13.4228 13.4226 11.3335 15.9999 11.3335C18.5773 11.3335 20.6666 13.4228 20.6666 16.0002Z" stroke="#101010" stroke-width="1.5"/>
<path d="M28.0147 18.7953C28.7106 18.6077 29.0586 18.5138 29.1959 18.3343C29.3334 18.155 29.3334 17.8663 29.3334 17.2891V14.7109C29.3334 14.1337 29.3334 13.845 29.1959 13.6657C29.0585 13.4862 28.7106 13.3923 28.0147 13.2047C25.4142 12.5034 23.7866 9.78461 24.4578 7.20109C24.6423 6.49058 24.7346 6.13534 24.6465 5.92698C24.5583 5.71862 24.3055 5.57505 23.7997 5.28787L21.5001 3.98223C21.0038 3.70045 20.7557 3.55955 20.533 3.58955C20.3102 3.61955 20.059 3.87023 19.5563 4.37157C17.6107 6.31257 14.3915 6.31249 12.4459 4.37145C11.9433 3.8701 11.6921 3.61943 11.4693 3.58942C11.2466 3.55942 10.9984 3.70031 10.5021 3.9821L8.20253 5.28775C7.69679 5.5749 7.44391 5.71847 7.35579 5.92679C7.26765 6.13513 7.35991 6.49042 7.54441 7.20099C8.21524 9.78459 6.58637 12.5034 3.98544 13.2047C3.28957 13.3923 2.94164 13.4862 2.80419 13.6655C2.66675 13.845 2.66675 14.1337 2.66675 14.7109V17.2891C2.66675 17.8663 2.66675 18.155 2.80419 18.3343C2.94161 18.5138 3.28956 18.6077 3.98544 18.7953C6.58595 19.4966 8.21352 22.2154 7.54237 24.7989C7.3578 25.5094 7.26551 25.8646 7.35363 26.073C7.44176 26.2814 7.69464 26.425 8.20041 26.7121L10.5 28.0178C10.9964 28.2995 11.2445 28.4405 11.4673 28.4105C11.69 28.3805 11.9413 28.1297 12.4437 27.6283C14.3903 25.6858 17.6118 25.6857 19.5586 27.6282C20.061 28.1297 20.3122 28.3803 20.535 28.4103C20.7577 28.4403 21.0059 28.2994 21.5022 28.0177L23.8018 26.7119C24.3077 26.4249 24.5606 26.2813 24.6486 26.0729C24.7367 25.8645 24.6445 25.5093 24.4598 24.7987C23.7883 22.2154 25.4146 19.4967 28.0147 18.7953Z" stroke="#101010" stroke-width="1.5" stroke-linecap="round"/>
</svg>
