<svg width="32" height="32" viewBox="0 0 32 32" fill="none" xmlns="http://www.w3.org/2000/svg">
<path d="M20.6663 16.0007C20.6663 18.578 18.577 20.6673 15.9997 20.6673C13.4223 20.6673 11.333 18.578 11.333 16.0007C11.333 13.4233 13.4223 11.334 15.9997 11.334C18.577 11.334 20.6663 13.4233 20.6663 16.0007Z" stroke="#101010" stroke-width="1.5"/>
<path d="M28.015 18.7957C28.7109 18.6081 29.0589 18.5143 29.1962 18.3348C29.3337 18.1555 29.3337 17.8668 29.3337 17.2896V14.7113C29.3337 14.1341 29.3337 13.8455 29.1962 13.6661C29.0587 13.4867 28.7109 13.3928 28.015 13.2052C25.4145 12.5039 23.7869 9.78509 24.4581 7.20157C24.6426 6.49107 24.7349 6.13583 24.6467 5.92747C24.5586 5.71911 24.3058 5.57553 23.7999 5.28836L21.5003 3.98272C21.0041 3.70093 20.7559 3.56004 20.5333 3.59004C20.3105 3.62004 20.0593 3.87072 19.5566 4.37205C17.611 6.31305 14.3918 6.31297 12.4461 4.37193C11.9436 3.87059 11.6923 3.61992 11.4696 3.58991C11.2468 3.55991 10.9987 3.7008 10.5024 3.98259L8.20278 5.28824C7.69703 5.57539 7.44415 5.71896 7.35603 5.92728C7.2679 6.13561 7.36015 6.49091 7.54466 7.20148C8.21549 9.78508 6.58662 12.5039 3.98569 13.2052C3.28982 13.3928 2.94189 13.4867 2.80443 13.666C2.66699 13.8455 2.66699 14.1341 2.66699 14.7113V17.2896C2.66699 17.8668 2.66699 18.1555 2.80443 18.3348C2.94186 18.5143 3.28981 18.6081 3.98569 18.7957C6.58619 19.4971 8.21377 22.2159 7.54262 24.7993C7.35805 25.5099 7.26575 25.8651 7.35387 26.0735C7.44201 26.2819 7.69489 26.4255 8.20066 26.7125L10.5003 28.0183C10.9966 28.3 11.2448 28.4409 11.4675 28.4109C11.6903 28.3809 11.9415 28.1301 12.4439 27.6288C14.3906 25.6863 17.6121 25.6861 19.5589 27.6287C20.0613 28.1301 20.3125 28.3808 20.5353 28.4108C20.7579 28.4408 21.0062 28.2999 21.5025 28.0181L23.8021 26.7124C24.3079 26.4253 24.5609 26.2817 24.6489 26.0733C24.737 25.8649 24.6447 25.5097 24.4601 24.7992C23.7886 22.2159 25.4149 19.4972 28.015 18.7957Z" stroke="#101010" stroke-width="1.5" stroke-linecap="round"/>
</svg>
