<svg width="33" height="32" viewBox="0 0 33 32" fill="none" xmlns="http://www.w3.org/2000/svg">
<path d="M16.6673 29.334L14.0007 21.334H3.33398L6.00065 29.334H16.6673ZM16.6673 29.334H22.0006" stroke="#101010" stroke-width="1.5" stroke-linecap="round" stroke-linejoin="round"/>
<path d="M16.6667 17.334V16.6673C16.6667 14.1532 16.6667 12.8961 15.8856 12.115C15.1045 11.334 13.8475 11.334 11.3333 11.334C8.81917 11.334 7.56209 11.334 6.78105 12.115C6 12.8961 6 14.1532 6 16.6673V17.334" stroke="#101010" stroke-width="1.5" stroke-linecap="round" stroke-linejoin="round"/>
<path d="M26.0003 17.3327C26.0003 18.8055 24.8065 19.9993 23.3337 19.9993C21.8609 19.9993 20.667 18.8055 20.667 17.3327C20.667 15.8599 21.8609 14.666 23.3337 14.666C24.8065 14.666 26.0003 15.8599 26.0003 17.3327Z" stroke="#101010" stroke-width="1.5"/>
<path d="M14.0003 5.33268C14.0003 6.80544 12.8064 7.99935 11.3337 7.99935C9.8609 7.99935 8.66699 6.80544 8.66699 5.33268C8.66699 3.85992 9.8609 2.66602 11.3337 2.66602C12.8064 2.66602 14.0003 3.85992 14.0003 5.33268Z" stroke="#101010" stroke-width="1.5"/>
<path d="M19.334 23.334H27.334C28.8068 23.334 30.0007 24.5279 30.0007 26.0007V26.6673C30.0007 28.1401 28.8068 29.334 27.334 29.334H26.0007" stroke="#101010" stroke-width="1.5" stroke-linecap="round"/>
</svg>
