<svg width="33" height="32" viewBox="0 0 33 32" fill="none" xmlns="http://www.w3.org/2000/svg">
<path d="M21.0003 16.0002C21.0003 18.5775 18.911 20.6668 16.3337 20.6668C13.7563 20.6668 11.667 18.5775 11.667 16.0002C11.667 13.4228 13.7563 11.3335 16.3337 11.3335C18.911 11.3335 21.0003 13.4228 21.0003 16.0002Z" stroke="white" stroke-width="1.5"/>
<path d="M28.348 18.7953C29.0439 18.6077 29.3919 18.5138 29.5292 18.3343C29.6667 18.155 29.6667 17.8663 29.6667 17.2891V14.7109C29.6667 14.1337 29.6667 13.845 29.5292 13.6657C29.3917 13.4862 29.0439 13.3923 28.348 13.2047C25.7475 12.5034 24.1199 9.78461 24.7911 7.20109C24.9756 6.49058 25.0679 6.13534 24.9797 5.92698C24.8916 5.71862 24.6388 5.57505 24.1329 5.28787L21.8333 3.98223C21.3371 3.70045 21.0889 3.55955 20.8663 3.58955C20.6435 3.61955 20.3923 3.87023 19.8896 4.37157C17.944 6.31257 14.7248 6.31249 12.7791 4.37145C12.2766 3.8701 12.0253 3.61943 11.8026 3.58942C11.5799 3.55942 11.3317 3.70031 10.8354 3.9821L8.53579 5.28775C8.03004 5.5749 7.77716 5.71847 7.68904 5.92679C7.60091 6.13513 7.69316 6.49042 7.87767 7.20099C8.54849 9.78459 6.91963 12.5034 4.31869 13.2047C3.62283 13.3923 3.27489 13.4862 3.13744 13.6655C3 13.845 3 14.1337 3 14.7109V17.2891C3 17.8663 3 18.155 3.13744 18.3343C3.27487 18.5138 3.62281 18.6077 4.31869 18.7953C6.9192 19.4966 8.54677 22.2154 7.87563 24.7989C7.69105 25.5094 7.59876 25.8646 7.68688 26.073C7.77501 26.2814 8.02789 26.425 8.53367 26.7121L10.8333 28.0178C11.3296 28.2995 11.5778 28.4405 11.8005 28.4105C12.0233 28.3805 12.2745 28.1297 12.7769 27.6283C14.7236 25.6858 17.9451 25.6857 19.8919 27.6282C20.3943 28.1297 20.6455 28.3803 20.8683 28.4103C21.0909 28.4403 21.3392 28.2994 21.8355 28.0177L24.1351 26.7119C24.6409 26.4249 24.8939 26.2813 24.9819 26.0729C25.07 25.8645 24.9777 25.5093 24.7931 24.7987C24.1216 22.2154 25.7479 19.4967 28.348 18.7953Z" stroke="white" stroke-width="1.5" stroke-linecap="round"/>
</svg>
