<svg width="33" height="32" viewBox="0 0 33 32" fill="none" xmlns="http://www.w3.org/2000/svg">
<path d="M20.9993 16.0007C20.9993 18.578 18.91 20.6673 16.3327 20.6673C13.7553 20.6673 11.666 18.578 11.666 16.0007C11.666 13.4233 13.7553 11.334 16.3327 11.334C18.91 11.334 20.9993 13.4233 20.9993 16.0007Z" stroke="#101010" stroke-width="1.5"/>
<path d="M28.348 18.7957C29.0439 18.6081 29.3919 18.5143 29.5292 18.3348C29.6667 18.1555 29.6667 17.8668 29.6667 17.2896V14.7113C29.6667 14.1341 29.6667 13.8455 29.5292 13.6661C29.3917 13.4867 29.0439 13.3928 28.348 13.2052C25.7475 12.5039 24.1199 9.78509 24.7911 7.20157C24.9756 6.49107 25.0679 6.13583 24.9797 5.92747C24.8916 5.71911 24.6388 5.57553 24.1329 5.28836L21.8333 3.98272C21.3371 3.70093 21.0889 3.56004 20.8663 3.59004C20.6435 3.62004 20.3923 3.87072 19.8896 4.37205C17.944 6.31305 14.7248 6.31297 12.7791 4.37193C12.2766 3.87059 12.0253 3.61992 11.8026 3.58991C11.5799 3.55991 11.3317 3.7008 10.8354 3.98259L8.53579 5.28824C8.03004 5.57539 7.77716 5.71896 7.68904 5.92728C7.60091 6.13561 7.69316 6.49091 7.87767 7.20148C8.54849 9.78508 6.91963 12.5039 4.31869 13.2052C3.62283 13.3928 3.27489 13.4867 3.13744 13.666C3 13.8455 3 14.1341 3 14.7113V17.2896C3 17.8668 3 18.1555 3.13744 18.3348C3.27487 18.5143 3.62281 18.6081 4.31869 18.7957C6.9192 19.4971 8.54677 22.2159 7.87563 24.7993C7.69105 25.5099 7.59876 25.8651 7.68688 26.0735C7.77501 26.2819 8.02789 26.4255 8.53367 26.7125L10.8333 28.0183C11.3296 28.3 11.5778 28.4409 11.8005 28.4109C12.0233 28.3809 12.2745 28.1301 12.7769 27.6288C14.7236 25.6863 17.9451 25.6861 19.8919 27.6287C20.3943 28.1301 20.6455 28.3808 20.8683 28.4108C21.0909 28.4408 21.3392 28.2999 21.8355 28.0181L24.1351 26.7124C24.6409 26.4253 24.8939 26.2817 24.9819 26.0733C25.07 25.8649 24.9777 25.5097 24.7931 24.7992C24.1216 22.2159 25.7479 19.4972 28.348 18.7957Z" stroke="#101010" stroke-width="1.5" stroke-linecap="round"/>
</svg>
