<svg width="24" height="24" viewBox="0 0 24 24" fill="none" xmlns="http://www.w3.org/2000/svg">
<path d="M13 15C10.7083 21 4.29167 15 2 21" stroke="#45C74D" stroke-width="1.5" stroke-linecap="round" stroke-linejoin="round"/>
<path d="M15.5 15H17.0013C19.3583 15 20.5368 15 21.2691 14.2678C22.0013 13.5355 22.0013 12.357 22.0013 10V8.00002C22.0013 5.643 22.0013 4.46449 21.2691 3.73225C20.5368 3.00002 19.3583 3.00002 17.0013 3.00002H13.0013C10.6443 3.00002 9.46576 3.00002 8.73353 3.73225C8.11312 4.35266 8.01838 5.29346 8.00391 7.00002" stroke="#45C74D" stroke-width="1.5" stroke-linecap="round" stroke-linejoin="round"/>
<path d="M7.5 15C8.88071 15 10 13.8807 10 12.5C10 11.1193 8.88071 10 7.5 10C6.11929 10 5 11.1193 5 12.5C5 13.8807 6.11929 15 7.5 15Z" stroke="#45C74D" stroke-width="1.5" stroke-linecap="round" stroke-linejoin="round"/>
<path d="M12 7.00002H18M18 11H15" stroke="#45C74D" stroke-width="1.5" stroke-linecap="round" stroke-linejoin="round"/>
</svg>
