<svg width="24" height="24" viewBox="0 0 24 24" fill="none" xmlns="http://www.w3.org/2000/svg">
<path d="M7 11.2947C12.284 1.44656 18.8635 1.333 21.4928 2.50724C22.667 5.1365 22.5534 11.716 12.7053 17C12.6031 16.4129 12.0352 14.8749 10.5801 13.4199C9.12512 11.9648 7.58712 11.3969 7 11.2947Z" stroke="#101010" stroke-width="1.5" stroke-linecap="round" stroke-linejoin="round"/>
<path d="M14 16.8C16.0428 17.7334 16.2609 19.4069 16.5439 21C16.5439 21 20.8223 18.0481 18.0856 14" stroke="#101010" stroke-width="1.5" stroke-linecap="round" stroke-linejoin="round"/>
<path d="M7.19998 10C6.26664 7.95722 4.59305 7.73912 3 7.45614C3 7.45614 5.95194 3.17766 10 5.91444" stroke="#101010" stroke-width="1.5" stroke-linecap="round" stroke-linejoin="round"/>
<path d="M6.20864 14C5.57675 14.6319 4.50253 16.4644 5.2608 18.7392C7.53562 19.4975 9.36811 18.4233 9.99998 17.7914" stroke="#101010" stroke-width="1.5" stroke-linecap="round" stroke-linejoin="round"/>
<path d="M18.0953 7.75347C18.0953 6.73327 17.2683 5.90625 16.2481 5.90625C15.2279 5.90625 14.4009 6.73327 14.4009 7.75347C14.4009 8.77366 15.2279 9.60069 16.2481 9.60069C17.2683 9.60069 18.0953 8.77366 18.0953 7.75347Z" stroke="#101010" stroke-width="1.5"/>
</svg>
