<svg width="22" height="22" viewBox="0 0 22 22" fill="none" xmlns="http://www.w3.org/2000/svg">
<path d="M5.5 10.7947C10.784 0.946558 17.3635 0.832998 19.9928 2.00724C21.167 4.6365 21.0534 11.216 11.2053 16.5C11.1031 15.9129 10.5352 14.3749 9.0801 12.9199C7.62512 11.4648 6.08712 10.8969 5.5 10.7947Z" stroke="#45C74D" stroke-width="1.5" stroke-linecap="round" stroke-linejoin="round"/>
<path d="M12.5 16.3C14.5428 17.2334 14.7609 18.9069 15.0439 20.5C15.0439 20.5 19.3223 17.5481 16.5856 13.5" stroke="#45C74D" stroke-width="1.5" stroke-linecap="round" stroke-linejoin="round"/>
<path d="M5.69998 9.49987C4.76664 7.45709 3.09305 7.23899 1.5 6.95601C1.5 6.95601 4.45194 2.67753 8.5 5.41431" stroke="#45C74D" stroke-width="1.5" stroke-linecap="round" stroke-linejoin="round"/>
<path d="M4.70864 13.4998C4.07675 14.1317 3.00253 15.9642 3.7608 18.239C6.03562 18.9973 7.86811 17.9231 8.49998 17.2912" stroke="#45C74D" stroke-width="1.5" stroke-linecap="round" stroke-linejoin="round"/>
<path d="M16.5952 7.253C16.5952 6.2328 15.7682 5.40578 14.748 5.40578C13.7278 5.40578 12.9008 6.2328 12.9008 7.253C12.9008 8.27319 13.7278 9.10022 14.748 9.10022C15.7682 9.10022 16.5952 8.27319 16.5952 7.253Z" stroke="#45C74D" stroke-width="1.5"/>
</svg>
